<svg width="35" height="35" viewBox="0 0 35 35" fill="none" xmlns="http://www.w3.org/2000/svg">
<path d="M17 0C7.62592 0 0 7.62592 0 17C0 26.3741 7.62592 34 17 34C26.3741 34 34 26.3741 34 17C34 7.62592 26.3741 0 17 0ZM25.0849 25.7933C24.8087 26.0695 24.446 26.2083 24.0833 26.2083C23.7207 26.2083 23.358 26.0695 23.0817 25.7933L15.9984 18.7099C15.7321 18.445 15.5833 18.0852 15.5833 17.7083V8.5C15.5833 7.71658 16.218 7.08333 17 7.08333C17.782 7.08333 18.4167 7.71658 18.4167 8.5V17.1218L25.0849 23.7901C25.6388 24.344 25.6388 25.2393 25.0849 25.7933Z" fill="#D3D3D3"/>
</svg>
