<svg width="35" height="35" viewBox="0 0 35 35" fill="none" xmlns="http://www.w3.org/2000/svg">
<g clip-path="url(#clip0_108_785)">
<path d="M7.58789 1.73438C7.58789 2.28666 8.0356 2.73437 8.58789 2.73437L17.4122 2.73437L10.4228 9.72385L12.3562 11.6574L16.0645 7.9491L16.0645 27.0774L12.3562 23.3691L10.4228 25.3027L17.3856 32.2656L8.58789 32.2656C8.03561 32.2656 7.58789 32.7133 7.58789 33.2656L7.58789 34C7.58789 34.5523 8.03561 35 8.58789 35L26.4121 35C26.9644 35 27.4121 34.5523 27.4121 34L27.4121 33.2656C27.4121 32.7133 26.9644 32.2656 26.4121 32.2656L17.4776 32.2656L24.4405 25.3027L22.5071 23.3691L18.7988 27.0774L18.7988 7.9491L22.507 11.6574L24.4405 9.72385L17.4511 2.73437L26.4121 2.73437C26.9644 2.73437 27.4121 2.28666 27.4121 1.73437L27.4121 0.999999C27.4121 0.447715 26.9644 -8.46974e-07 26.4121 -8.22833e-07L8.58789 -4.37114e-08C8.0356 -1.95703e-08 7.58789 0.447716 7.58789 1L7.58789 1.73438Z" fill="#D3D3D3"/>
</g>
<defs>
<clipPath id="clip0_108_785">
<rect width="35" height="35" fill="white" transform="translate(0 35) rotate(-90)"/>
</clipPath>
</defs>
</svg>
