<svg width="35" height="35" viewBox="0 0 35 35" fill="none" xmlns="http://www.w3.org/2000/svg">
<g clip-path="url(#clip0_108_799)">
<path d="M23.3367 6.85225H21.1079C21.4531 6.24888 21.6516 5.55114 21.6516 4.80757C21.6516 2.52934 19.798 0.675781 17.5198 0.675781C15.2416 0.675781 13.388 2.52934 13.388 4.80757C13.388 5.55114 13.5865 6.24881 13.9317 6.85225H11.7029L7.04932 25.3817H27.9903L23.3367 6.85225ZM17.5198 2.73461C18.6628 2.73461 19.5928 3.66458 19.5928 4.80757C19.5928 5.83492 18.8414 6.68967 17.8594 6.85225H17.1802C16.1982 6.68967 15.4468 5.83492 15.4468 4.80757C15.4468 3.66451 16.3768 2.73461 17.5198 2.73461ZM17.5494 22.0344L13.2671 17.8025L14.7143 16.3381L16.4905 18.0934V11.6552H18.5493V18.0936L20.3169 16.3049L21.7812 17.7521L17.5494 22.0344Z" fill="#D3D3D3"/>
<path d="M25.3478 29.499H21.9508L20.7446 34.3234H24.1417L25.3478 29.499Z" fill="#D3D3D3"/>
<path d="M9.74268 34.3234H13.1244L14.3305 29.499H10.9487L9.74268 34.3234Z" fill="#D3D3D3"/>
<path d="M18.6222 34.3234L19.8283 29.499H16.4526L15.2466 34.3234H18.6222Z" fill="#D3D3D3"/>
<path d="M2.06473 34.3234L3.27085 29.499H0V34.3234H2.06473Z" fill="#D3D3D3"/>
<path d="M33.0606 29.499L31.8545 34.3234H35.0001V29.499H33.0606Z" fill="#D3D3D3"/>
<path d="M27.4698 29.499L26.2637 34.3234H29.7323L30.9384 29.499H27.4698Z" fill="#D3D3D3"/>
<path d="M4.18701 34.3234H7.62099L8.82705 29.499H5.39314L4.18701 34.3234Z" fill="#D3D3D3"/>
</g>
<defs>
<clipPath id="clip0_108_799">
<rect width="35" height="35" fill="white"/>
</clipPath>
</defs>
</svg>
