<svg width="35" height="35" viewBox="0 0 35 35" fill="none" xmlns="http://www.w3.org/2000/svg">
<path d="M1.22809 21.5907V6.69948C1.22809 5.872 1.89886 5.20117 2.7264 5.20117H17.61C18.4375 5.20117 19.1082 5.872 19.1082 6.69948V21.5908C19.1082 21.8666 18.8847 22.0902 18.6088 22.0902H1.72752C1.45164 22.0902 1.22809 21.8666 1.22809 21.5907ZM13.247 26.6921C13.247 28.4084 11.8557 29.7997 10.1395 29.7997C8.42328 29.7997 7.03191 28.4084 7.03191 26.6921C7.03191 24.9758 8.42328 23.5846 10.1395 23.5846C11.8557 23.5846 13.247 24.9758 13.247 26.6921ZM11.6932 26.6921C11.6932 25.834 10.9975 25.1383 10.1394 25.1383C9.28129 25.1383 8.58558 25.834 8.58558 26.6921C8.58558 27.5503 9.28129 28.246 10.1394 28.246C10.9975 28.246 11.6932 27.5503 11.6932 26.6921ZM7.46295 23.5845H0.499436C0.223611 23.5845 0 23.8081 0 24.0839V25.5992C0 25.875 0.223611 26.0986 0.499436 26.0986H6.08102C6.22674 25.0987 6.73144 24.2155 7.46295 23.5845ZM29.5063 26.6921C29.5063 28.4084 28.1149 29.7997 26.3987 29.7997C24.6824 29.7997 23.2911 28.4084 23.2911 26.6921C23.2911 24.9758 24.6824 23.5846 26.3987 23.5846C28.1149 23.5845 29.5063 24.9758 29.5063 26.6921ZM27.9525 26.6921C27.9525 25.834 27.2568 25.1383 26.3987 25.1383C25.5405 25.1383 24.8449 25.834 24.8449 26.6921C24.8449 27.5503 25.5406 28.246 26.3987 28.246C27.2568 28.246 27.9525 27.5503 27.9525 26.6921ZM35 24.0839V25.5992C35 25.875 34.7764 26.0986 34.5006 26.0986H30.457C30.1678 24.1151 28.4608 22.5856 26.3988 22.5856C24.3364 22.5856 22.6293 24.1152 22.3401 26.0986H14.1979C14.0522 25.0988 13.5475 24.2155 12.816 23.5845H20.5363V9.29909C20.5363 8.74744 20.9835 8.30021 21.5351 8.30021H26.2501C27.5777 8.30021 28.8186 8.95967 29.5614 10.0599L32.601 14.5619C33.0469 15.2223 33.2851 16.0009 33.2851 16.7977V23.5845H34.5006C34.7764 23.5845 35 23.8081 35 24.0839ZM29.9335 14.6772L27.5029 11.2234C27.4093 11.0905 27.2569 11.0114 27.0944 11.0114H23.303C23.0273 11.0114 22.8036 11.235 22.8036 11.5108V14.9647C22.8036 15.2406 23.0272 15.4641 23.303 15.4641H29.5251C29.9297 15.4641 30.1663 15.0081 29.9335 14.6772Z" fill="#D3D3D3"/>
</svg>
