<svg width="35" height="35" viewBox="0 0 35 35" fill="none" xmlns="http://www.w3.org/2000/svg">
<path d="M30.7629 14.1666L28.8714 12.0745C29.239 11.4533 29.3703 10.7293 29.2395 10.0121C29.0957 9.22359 28.6535 8.53818 27.9942 8.0822L25.2651 6.1947C25.2823 5.75407 25.2013 5.31152 25.022 4.89447C24.7054 4.15808 24.1211 3.58903 23.3764 3.2921L17.341 0.885711C16.6095 0.59406 15.8125 0.601941 15.0968 0.895716C14.5523 0.343251 13.7959 0 12.9607 0H6.46334C4.80861 0 3.4624 1.34621 3.4624 3.00093V28.7504C3.4624 32.1965 6.26598 35 9.71199 35C11.2802 35 12.7153 34.4192 13.8137 33.4617C13.8294 33.4505 13.8449 33.4385 13.8596 33.4253L25.5602 22.8954C25.7711 22.7055 25.7882 22.3806 25.5984 22.1696C25.4084 21.9585 25.0833 21.9414 24.8726 22.1313L24.3905 22.5652L22.8243 20.833L25.2832 17.2776L27.5187 19.7499L26.5016 20.6653C26.2906 20.8552 26.2735 21.1802 26.4633 21.3912C26.5648 21.504 26.7049 21.5613 26.8455 21.5613C26.968 21.5613 27.091 21.5178 27.1892 21.4294L30.5496 18.4052C31.1442 17.8676 31.4938 17.1306 31.5341 16.33C31.5744 15.5295 31.3005 14.7611 30.7629 14.1666ZM28.2282 10.1965C28.3227 10.7149 28.2097 11.2392 27.9099 11.6726L26.5143 13.6905L23.3371 11.4933L25.0192 7.27455L27.4095 8.92769C27.843 9.22743 28.1337 9.67799 28.2282 10.1965ZM23.3432 18.2758L21.2187 16.8065L22.9465 12.4729L25.9296 14.5359L23.3432 18.2758ZM20.172 22.8611L19.1002 22.1198L20.8281 17.7862L22.7584 19.1212L20.172 22.8611ZM20.9631 14.6722L19.4736 14.0783C19.21 13.9733 18.9111 14.1017 18.8059 14.3654C18.7007 14.6291 18.8293 14.928 19.0929 15.0332L20.5824 15.627L18.8168 20.0551L15.9616 18.9167V13.7847L17.0494 14.2184C17.1119 14.2433 17.1763 14.255 17.2396 14.255C17.4438 14.255 17.6369 14.1325 17.7172 13.9313C17.8223 13.6676 17.6938 13.3687 17.4302 13.2635L15.9616 12.678V7.54605L22.7286 10.2442L20.9631 14.6722ZM15.9616 20.0232L18.4362 21.0099L15.9616 27.2161V20.0232ZM19.1643 26.1253L19.7342 26.7557L17.0703 29.1529L19.1643 26.1253ZM16.9432 27.5297L18.7097 23.0994L19.5874 23.7064L16.9432 27.5297ZM16.9604 1.84056L22.9957 4.24696C23.4853 4.44212 23.8695 4.81628 24.0776 5.30042C24.2207 5.63326 24.2688 5.99076 24.2214 6.34073C24.2206 6.34477 24.2202 6.34888 24.2194 6.35293C24.1975 6.50787 24.1571 6.6613 24.0976 6.81034L23.1092 9.28931L15.9616 6.43941V3.00093C15.9616 2.56387 15.8669 2.14866 15.6982 1.77375C16.1106 1.65719 16.5512 1.6774 16.9604 1.84056ZM7.4356 28.7504L8.00024 27.5297L11.0002 27.2161L12.0002 28.7504C11.0002 30.5 11.0002 30 9.11197 30.5C7.4356 28.7504 7.4356 31.6296 7.4356 28.7504ZM23.6265 23.2528L20.4983 26.068L19.7648 25.2568L22.2237 21.7015L23.6265 23.2528ZM30.5075 16.2784C30.481 16.8047 30.2512 17.2892 29.861 17.6419L28.2827 19.0623L25.8838 16.4092L28.2765 12.9495L30.0004 14.856C30.3539 15.2469 30.534 15.752 30.5075 16.2784Z" fill="#D3D3D3"/>
<path d="M9.5955 26.3047C8.23647 26.3047 7.13086 27.4103 7.13086 28.7693C7.13086 30.1284 8.23647 31.234 9.5955 31.234C10.9545 31.234 12.0601 30.1284 12.0601 28.7693C12.0601 27.4103 10.9545 26.3047 9.5955 26.3047ZM9.5955 30.2061C8.80326 30.2061 8.15876 29.5616 8.15876 28.7694C8.15876 27.9772 8.80326 27.3327 9.5955 27.3327C10.3877 27.3327 11.0322 27.9772 11.0322 28.7694C11.0322 29.5616 10.3877 30.2061 9.5955 30.2061Z" fill="#D3D3D3"/>
</svg>
