<svg width="35" height="35" viewBox="0 0 35 35" fill="none" xmlns="http://www.w3.org/2000/svg">
<path d="M11.8472 34.9995C7.95653 22.1793 16.1774 17.4982 16.1774 17.4982C15.6022 24.3393 19.4898 29.6689 19.4898 29.6689C20.9196 29.2375 23.6487 27.2213 23.6487 27.2213C23.6487 29.6689 22.2087 34.9965 22.2087 34.9965C22.2087 34.9965 27.2497 31.0987 28.8365 24.6248C30.4214 18.1509 25.8178 11.6516 25.8178 11.6516C26.0952 16.2337 24.5451 20.7403 21.508 24.1832C21.66 24.0078 21.7875 23.813 21.8854 23.6019C22.431 22.5107 23.307 19.6746 22.794 13.1069C22.072 3.88759 13.7186 0 13.7186 0C14.4386 5.61722 12.2796 6.91139 7.22226 17.5737C2.16492 28.234 11.8472 34.9995 11.8472 34.9995Z" fill="#D3D3D3"/>
</svg>
